<svg xmlns="http://www.w3.org/2000/svg" width="100" height="100.375" viewBox="0 0 100 100.375">
  <g id="favicon" transform="translate(-393 -628.625)">
    <rect id="Rectangle_2" data-name="Rectangle 2" width="100" height="100" transform="translate(393 629)" fill="#fff" opacity="0"/>
    <g id="Group_5" data-name="Group 5" transform="translate(406.66 628.625)">
      <path id="path160" d="M473.607-290.041a36.465,36.465,0,0,0-36.464,36.463c0,17.32,26.971,52.952,34.521,62.589a2.466,2.466,0,0,0,3.886,0c7.55-9.637,34.521-45.269,34.521-62.589a36.464,36.464,0,0,0-36.463-36.463" transform="translate(-437.143 290.041)" fill="#ff5a5f"/>
      <path id="path162" d="M496.794-250.474a20.083,20.083,0,0,1-20.083,20.083,20.082,20.082,0,0,1-20.083-20.083,20.083,20.083,0,0,1,20.083-20.083,20.084,20.084,0,0,1,20.083,20.083" transform="translate(-440.247 286.937)" fill="#fff"/>
      <path id="path164" d="M493.417-244.082c-2.073,2.074-6.469,1.066-9.784-2.263a10.82,10.82,0,0,1-3.33-6.383,9.91,9.91,0,0,0-2.979-6.367l-8.851-8.4a17.421,17.421,0,0,1,2-1.022l7.93,8.34a9.8,9.8,0,0,0,6.353,2.978,10.848,10.848,0,0,1,6.4,3.33c3.33,3.329,4.338,7.711,2.263,9.785" transform="translate(-442.133 286.612)" fill="#ff5a5f"/>
      <path id="path166" d="M487.281-231.038A20.461,20.461,0,0,1,485.25-230l-8.514-8.966a7.089,7.089,0,0,0-5.346-2.206,4.319,4.319,0,0,1-3.169-1.27l-8.646-8.646a.662.662,0,0,1,.016-.964.665.665,0,0,1,.934.044l6.718,6.718a.587.587,0,0,0,.395.161.591.591,0,0,0,.395-.161.555.555,0,0,0,0-.788l-6.732-6.748a.655.655,0,0,1,.015-.948.666.666,0,0,1,.935.044l6.718,6.7a.528.528,0,0,0,.393.16.532.532,0,0,0,.395-.16.539.539,0,0,0,0-.775l-6.732-6.747a.657.657,0,0,1,.015-.948.665.665,0,0,1,.935.044l6.718,6.7a.555.555,0,0,0,.788,0,.553.553,0,0,0,0-.788l-6.718-6.7a.7.7,0,0,1-.028-.948.655.655,0,0,1,.948-.015l8.646,8.646a4.354,4.354,0,0,1,1.271,3.184,7.082,7.082,0,0,0,2.2,5.345l9.479,9" transform="translate(-440.684 284.842)" fill="#ff5a5f"/>
      <path id="path168" d="M493.129-241.449c-2.073,2.074-6.469,1.05-9.784-2.264a10.847,10.847,0,0,1-3.33-6.4,9.879,9.879,0,0,0-2.979-6.352l-10.369-9.858a14.905,14.905,0,0,1,1.518-.979l6.836,6.5,3.1,3.242c.059.059.117.1.176.16a10.081,10.081,0,0,1,1.723,4.864,10.82,10.82,0,0,0,3.33,6.383c3.315,3.329,7.711,4.337,9.784,2.263a3.644,3.644,0,0,0,.921-1.752,4.5,4.5,0,0,1-.921,4.191" transform="translate(-441.846 286.418)" fill="#bcbbb9"/>
      <path id="path170" d="M461.667-250.222a.451.451,0,0,0-.044.063l5.977,5.978a.558.558,0,0,0,.787,0c.045-.045.04-.109.066-.161l-5.844-5.845a.682.682,0,0,0-.943-.035" transform="translate(-441.042 283.726)" fill="#bcbbb9"/>
      <path id="path172" d="M463.718-252.273a.412.412,0,0,0-.045.064l5.977,5.977a.558.558,0,0,0,.788,0h0c.044-.045.04-.109.067-.161l-5.846-5.845a.681.681,0,0,0-.942-.035" transform="translate(-441.369 284.052)" fill="#bcbbb9"/>
      <path id="path174" d="M465.741-254.3c-.009.008-.011.021-.019.03l5.98,5.98a.556.556,0,0,0,.787,0c.045-.044.04-.108.067-.161l-5.865-5.864a.662.662,0,0,0-.951.015" transform="translate(-441.695 284.38)" fill="#bcbbb9"/>
      <path id="path176" d="M485.265-228.558a16.884,16.884,0,0,1-1.695.657l-6.834-7.185a7.106,7.106,0,0,0-5.346-2.219,4.3,4.3,0,0,1-3.169-1.255l-1.242-1.257-7.4-7.4a.644.644,0,0,1,.016-.948.678.678,0,0,1,.934.029l6.718,6.718a.529.529,0,0,0,.628.072l.351.352a4.319,4.319,0,0,0,3.169,1.27,7.081,7.081,0,0,1,5.3,2.161,6.875,6.875,0,0,0,1.111,1.417l2.394,2.264,5.069,5.33" transform="translate(-440.684 283.399)" fill="#bcbbb9"/>
      <path id="path178" d="M497.891-257.726a20.084,20.084,0,0,1-11.528,25.958c10.352-3.985,18.877-16.9,14.892-27.254s-18.97-14.216-29.322-10.232a20.084,20.084,0,0,1,25.958,11.528" transform="translate(-442.685 286.975)" fill="#c72227"/>
      <path id="path180" d="M457.4-243a20.083,20.083,0,0,1,11.527-25.958c-10.351,3.985-18.877,16.9-14.892,27.252S473-227.493,483.352-231.476A20.083,20.083,0,0,1,457.4-243" transform="translate(-439.674 286.683)" fill="#c72227"/>
    </g>
  </g>
</svg>
